Coordinates
version=1
nRows=22
nColumns=18
inDegrees=yes

Units are S.I. units (second, meters, Newtons, ...)
If the header above contains a line with 'inDegrees', this indicates whether rotational values are in degrees (yes) or radians (no).

endheader
time	ground_thorax_rot_x	ground_thorax_rot_y	ground_thorax_rot_z	ground_thorax_tx	ground_thorax_ty	ground_thorax_tz	clav_prot	clav_elev	scapula_abduction	scapula_elevation	scapula_upward_rot	scapula_winging	plane_elv	shoulder_elv	axial_rot	elbow_flexion	pro_sup
      7.03000000	      3.18328110	     -2.92549911	     -7.98458227	     -0.00501138	      0.00492696	      0.00105846	    -29.72044234	     -2.99023746	    -24.97794628	     -3.50920194	     13.02580443	      4.44679061	    -23.66702811	     17.91370385	     29.57346224	      0.00000000	     34.32000000
      7.04000000	      3.15827198	     -2.92197974	     -8.00110968	     -0.00494185	      0.00492421	      0.00099902	    -29.72086069	     -2.97882217	    -24.97782092	     -3.50242347	     13.03296931	      4.44127103	    -23.66758477	     17.93305348	     29.58170791	      0.00000000	     34.32000000
      7.05000000	      3.15645552	     -2.92237509	     -8.00297408	     -0.00498039	      0.00500198	      0.00102882	    -29.72102905	     -2.97758100	    -24.97821099	     -3.50160390	     13.03340256	      4.44073696	    -23.66783924	     17.93462152	     29.58213441	      0.00000000	     34.32000000
      7.06000000	      3.13146563	     -2.94768066	     -8.04141391	     -0.00494434	      0.00489463	      0.00099649	    -29.72805437	     -2.95096451	    -24.99621671	     -3.48245574	     13.03581328	      4.43041586	    -23.67934945	     17.97449714	     29.59316632	      0.00000000	     34.32000000
      7.07000000	      3.13740780	     -2.97469141	     -8.05875652	     -0.00496647	      0.00484788	      0.00100712	    -29.73211187	     -2.94069735	    -25.01264694	     -3.47185035	     13.02420202	      4.42939287	    -23.69042937	     17.99468365	     29.60191505	      0.00000000	     34.32000000
      7.08000000	      3.13815485	     -2.97592362	     -8.05914625	     -0.00503994	      0.00482952	      0.00093317	    -29.73226765	     -2.94064020	    -25.01325739	     -3.47166324	     13.02362701	      4.42950944	    -23.69074938	     17.99491366	     29.60208831	      0.00000000	     34.32000000
      7.09000000	      3.14927970	     -3.01550520	     -8.06738337	     -0.00500774	      0.00482184	      0.00097332	    -29.73813162	     -2.93698434	    -25.03362361	     -3.46491210	     13.00704935	      4.43151756	    -23.70213857	     18.01757660	     29.61463974	      0.00000000	     34.32000000
      7.10000000	      3.15258682	     -3.06026962	     -8.07282625	     -0.00503826	      0.00478720	      0.00101138	    -29.74610161	     -2.93343151	    -25.05307009	     -3.46039759	     12.99804492	      4.43121613	    -23.71285487	     18.04595070	     29.62719460	      0.00000000	     34.32000000
      7.11000000	      3.17035137	     -3.15182001	     -8.01257644	     -0.00512102	      0.00489632	      0.00109564	    -29.74024225	     -2.98237427	    -25.04094341	     -3.49185648	     12.97751525	      4.45298783	    -23.73647366	     18.14662645	     29.70454452	      0.00000000	     34.32000000
      7.12000000	      3.17090014	     -3.15267263	     -8.01313777	     -0.00521415	      0.00483115	      0.00110940	    -29.74025942	     -2.98234968	    -25.04123745	     -3.49172028	     12.97706717	      4.45309130	    -23.73681770	     18.14709321	     29.70474680	      0.00000000	     34.32000000
      7.13000000	      3.19054600	     -3.17976045	     -8.03536547	     -0.00517112	      0.00476522	      0.00121599	    -29.73645145	     -2.98028676	    -25.04617388	     -3.48500237	     12.95866009	      4.45787082	    -23.75206394	     18.17565781	     29.71896260	      0.00000000	     34.32000000
      7.14000000	      3.19073350	     -3.18035742	     -8.03576761	     -0.00524268	      0.00474177	      0.00123114	    -29.73647951	     -2.98027851	    -25.04626230	     -3.48496671	     12.95857174	      4.45789859	    -23.75229926	     18.17636231	     29.71919128	      0.00000000	     34.32000000
      7.15000000	      3.19127493	     -3.18197549	     -8.03694920	     -0.00530785	      0.00475027	      0.00122047	    -29.73647481	     -2.97997333	    -25.04666757	     -3.48458489	     12.95801044	      4.45794748	    -23.75294490	     18.17778309	     29.71968625	      0.00000000	     34.32000000
      7.16000000	      3.20570936	     -3.22025008	     -8.04800495	     -0.00521971	      0.00479687	      0.00124330	    -29.72287664	     -2.98488965	    -25.03563902	     -3.48141378	     12.93561670	      4.46780054	    -23.77353071	     18.22126199	     29.74801987	      0.00000000	     34.32000000
      7.17000000	      3.20578233	     -3.22050697	     -8.04786661	     -0.00522055	      0.00480445	      0.00119851	    -29.72276343	     -2.98502474	    -25.03550389	     -3.48146639	     12.93545761	      4.46790529	    -23.77361343	     18.22128886	     29.74821521	      0.00000000	     34.32000000
      7.18000000	      3.20592685	     -3.22065537	     -8.04747529	     -0.00522630	      0.00476639	      0.00118307	    -29.72268136	     -2.98535599	    -25.03529570	     -3.48170195	     12.93541555	      4.46803579	    -23.77366083	     18.22142960	     29.74842450	      0.00000000	     34.32000000
      7.19000000	      3.20649600	     -3.22074738	     -8.04682149	     -0.00521800	      0.00469573	      0.00116672	    -29.72259296	     -2.98593461	    -25.03506969	     -3.48209602	     12.93526139	      4.46827417	    -23.77371589	     18.22150450	     29.74863778	      0.00000000	     34.32000000
      7.20000000	      3.20743750	     -3.22063751	     -8.04610912	     -0.00517235	      0.00463961	      0.00114714	    -29.72241787	     -2.98661264	    -25.03481374	     -3.48249413	     12.93486013	      4.46862357	    -23.77380352	     18.22137427	     29.74884594	      0.00000000	     34.32000000
      7.21000000	      3.07212661	     -3.38415169	     -7.94897889	     -0.00513486	      0.00494222	      0.00117125	    -29.55057372	     -3.20180493	    -24.65837229	     -3.64768633	     12.98563544	      4.55573609	    -25.07721342	     18.02662491	     33.11039617	      0.00000000	     34.32000000
      7.22000000	      3.07208311	     -3.38406788	     -7.94919197	     -0.00514234	      0.00495041	      0.00120253	    -29.55052701	     -3.20169728	    -24.65834271	     -3.64759287	     12.98560528	      4.55571701	    -25.07727437	     18.02671885	     33.11039699	      0.00000000	     34.32000000
      7.23000000	      3.07222288	     -3.38417940	     -7.94946359	     -0.00518075	      0.00493006	      0.00123428	    -29.55051061	     -3.20162840	    -24.65836698	     -3.64752461	     12.98555040	      4.55571187	    -25.07739300	     18.02694712	     33.11040236	      0.00000000	     34.32000000
      7.24000000	      3.07262647	     -3.38458060	     -7.94973652	     -0.00520995	      0.00491212	      0.00121811	    -29.55052275	     -3.20158947	    -24.65852113	     -3.64743955	     12.98533778	      4.55575145	    -25.07755358	     18.02709438	     33.11040467	      0.00000000	     34.32000000
